<svg xmlns="http://www.w3.org/2000/svg">
      <symbol viewBox="0 0 18 14" id="icon-twitter">
        <path d="M11.5641 0.168904C12.2458 -0.0461515 12.9837 -0.0560928 13.6719 0.140507C14.3602 0.337107 14.9633 0.730138 15.3947 1.26319C16.1053 1.05385 16.8055 0.815959 17.5263 0.606617C17.5164 0.925848 17.4299 1.23907 17.2732 1.52372C17.1165 1.80837 16.8935 2.05738 16.6201 2.2528C16.8726 2.27877 17.1281 2.25112 17.3673 2.17197C17.6064 2.09281 17.8228 1.96424 18 1.79606C17.901 2.20987 17.6999 2.59695 17.4123 2.92708C17.1247 3.2572 16.7585 3.52144 16.3421 3.69916C16.095 9.96988 12.9748 14.1662 5.65332 13.9949H5.14874C4.70595 13.9949 0.731121 13.5667 0 12.2441C1.75201 12.4899 3.53888 12.0976 4.98398 11.1498C3.95423 10.8643 2.13158 10.7026 1.82265 8.40934C2.2108 8.54337 2.6321 8.57306 3.03776 8.49498C1.76087 7.70519 0.339817 7.0391 0.422197 4.99327C0.819634 5.29882 1.3269 5.45507 1.84325 5.43098C1.10183 5.20261 -0.24714 2.30989 0.895881 0.825474C2.82151 2.54778 4.86041 4.17493 8.48512 4.3367C8.71167 2.20522 9.68993 0.777896 11.5641 0.168904Z" fill="#D22856"/>
      </symbol>

      <symbol viewBox="0 0 9 18" id="icon-facebook"><path d="M6.50865 3.19324H9V0H6.02076C2.76125 0.171067 1.59862 2.27138 2.07612 5.81626H0V9.15206H2.07612V18H6.02076V9.15206H8.97924V5.81626H6.01038C5.98962 4.81837 5.96886 3.52587 6.50865 3.19324Z" fill="#D22856"/>
      </symbol>

      <symbol viewBox="0 0 15 13" id="icon-youtube"><path d="M1.83356 12.8089C1.64633 12.9278 1.42471 12.9941 1.19626 12.9996C0.967817 13.0051 0.74263 12.9495 0.548717 12.8398C0.354804 12.7301 0.200724 12.571 0.105646 12.3824C0.010569 12.1938 -0.0213097 11.984 0.0139762 11.779V1.22097C-0.0213097 1.01605 0.010569 0.806234 0.105646 0.617628C0.200724 0.429021 0.354804 0.269949 0.548717 0.1602C0.74263 0.0504516 0.967817 -0.00512927 1.19626 0.000372265C1.42471 0.0058738 1.64633 0.0722149 1.83356 0.191142L14.2333 5.69284C15.2556 6.13817 15.2556 6.86183 14.2333 7.30716L1.83356 12.8089Z" fill="#D22856"/>
      </symbol>

      <symbol viewBox="0 0 27 34" id="logo-htmlacademy"><path d="M13.64.02 13.5 0 0 1.4v24.61L13.5 34 27 26.01V1.41L13.64 0Zm11.6 25L13.5 31.96 1.77 25.02v-10.1l11.68 6.93.02 1.25-8.02-4.75v1.23l8.04 4.8.02 1.3-8.05-4.76v1.22l8.04 4.81 8.12-4.83V16.9l3.62-2.15v10.26Zm0-11.57L22 15.33l-1.48.88-7.06-4.19-.01 1.23 6.04 3.57-.06.03-.13.07-.86.5-4.98-2.95-.01 1.22 3.93 2.33-.93.61-.02.01-2.97-1.74-.01 1.23 1.94 1.13-1.98 1.19L1.8 13.58l11.63-6.96 11.8 6.83Zm0-1.22L13.43 5.3 1.77 12.22V2.99L13.5 1.76 25.23 3v9.24Z"/>
      </symbol>

      <symbol viewBox="0 0 47 56" id="logo-apple"><path d="M39.2 29.7A12.7 12.7 0 0 0 47 41c-1 2.9-2.3 5.6-4 8-2.4 3.4-5 6.8-8.8 7-4 0-5.1-2.3-9.6-2.3-4.4 0-5.8 2.2-9.4 2.3-3.7.1-6.7-3.7-9.1-7.1-5-7-8.8-19.7-3.7-28.2a14.5 14.5 0 0 1 12-7c3.7-.1 7.2 2.4 9.5 2.4s6.6-3 11-2.6a13.8 13.8 0 0 1 10.6 5.6c-.3.2-6.3 3.6-6.2 10.6ZM32 9A12 12 0 0 0 35 0c-3.3.3-6.4 1.8-8.6 4.2-1.8 2.1-3.5 5.5-3 8.7 3.2.2 6.5-1.6 8.5-4" fill="#fff"/>
      </symbol>

      <symbol viewBox="0 0 43 47" id="logo-android"><path d="M34.9 14H8v19.2c0 1 .3 1.8 1 2.5.6.6 1.5 1 2.4 1.1v7.5c0 .7.4 1.4 1 2a3 3 0 0 0 4 0c.5-.6.8-1.3.9-2v-7.5h8.2v7.5c0 .7.4 1.4 1 2a3 3 0 0 0 4 0c.6-.6.9-1.3 1-2v-7.5a3.6 3.6 0 0 0 3.4-3.6V14.4l-.1-.3ZM3 15.7a3 3 0 0 1 2 .9c.6.5.9 1.3.9 2V31a2.8 2.8 0 0 1-.9 2 3 3 0 0 1-2 1 3 3 0 0 1-2.1-1c-.6-.5-.9-1.2-.9-2V18.6a2.8 2.8 0 0 1 .9-2 3 3 0 0 1 2-.9ZM40 15.7a3 3 0 0 1 2.1.9c.6.5.9 1.3.9 2V31a2.8 2.8 0 0 1-.9 2 3 3 0 0 1-2 1 3 3 0 0 1-2.1-1c-.6-.5-.9-1.2-.9-2V18.6a2.8 2.8 0 0 1 .9-2 3 3 0 0 1 2-.9ZM8.2 12h26.5c0-2.7-1.2-5.3-3.2-7.2L34 .5a.3.3 0 0 0 0-.5.3.3 0 0 0-.5.1l-2.4 4.2A16.7 16.7 0 0 0 21.5.9a17 17 0 0 0-9.6 3.4L9.5.2 9.3 0h-.2l-.2.2v.3l2.6 4.2c-2 2-3.3 4.6-3.3 7.4Zm17.7-5.2c0-.3.1-.7.4-1a1.5 1.5 0 0 1 2.2 0 1.5 1.5 0 0 1 0 2.1 1.5 1.5 0 0 1-2.2 0c-.3-.3-.4-.7-.4-1Zm-11.4 0c0-.3.2-.7.4-1a1.5 1.5 0 0 1 2.2 0 1.5 1.5 0 0 1 0 2.1A1.5 1.5 0 0 1 15 8c-.2-.3-.4-.7-.4-1Z" fill="#A4C639"/>
      </symbol>

      <symbol viewBox="0 0 44 41" id="logo-microsoft"><path d="M21 19.5H0V0h21v19.5Z" fill="#F05423"/><path d="M44 19.5H23V0h21v19.5Z" fill="#84C441"/><path d="M21 41H0V21.5h21V41Z" fill="#2DABE2"/><path d="M44 41H23V21.5h21V41Z" fill="#F9BC15"/>
      </symbol>

      <symbol viewBox="0 0 44 44" id="icon-crop"><path d="M32 28h4V12a4 4 0 0 0-4-4H16v4h16v16Zm-20 4V0H8v8H0v4h8v20a4 4 0 0 0 4 4h20v8h4v-8h8v-4H12Z"/>
      </symbol>

      <symbol viewBox="0 0 48 43" id="icon-fill">
        <path d="M33.12 17.88 15.24 0l-2.83 2.83 4.76 4.76L6.88 17.88a3 3 0 0 0 0 4.24l11 11a3 3 0 0 0 4.24 0l11-11a3 3 0 0 0 0-4.24ZM10.41 20 20 10.42 29.59 20H10.41ZM38 23s-4 4.33-4 7a4 4 0 1 0 8 0c0-2.67-4-7-4-7ZM48 40H0v3h48v-3Z"/>
      </symbol>

      <symbol viewBox="0 0 32 32" id="icon-contrast"><path d="M16 4a12 12 0 1 1 0 24 12 12 0 0 1 0-24Zm0-4a16 16 0 1 0 0 32 16 16 0 0 0 0-32Z"/><path d="M16 24.29a8.52 8.52 0 0 0 0-17"/>
      </symbol>

      <symbol viewBox="0 0 74 23" id="logo-pink-phone">
        <path d="M0 2a1 1 0 0 1 1-2h7c5 0 9 3 9 7 0 5-4 8-9 8H3v7a1 1 0 0 1-2 1 1 1 0 0 1-1-1V2Zm8 11c4 0 6-2 6-5V7c0-3-2-4-6-4H3v9l5 1ZM22 1a1 1 0 0 1 1-1 1 1 0 0 1 1 1v21a1 1 0 0 1-1 1 1 1 0 0 1-1-1V1ZM31 1a1 1 0 0 1 1-1 2 2 0 0 1 2 1l13 17V1a1 1 0 0 1 1-1 1 1 0 0 1 2 1v21a1 1 0 0 1-2 1 2 2 0 0 1-1-1L33 4v18a1 1 0 0 1-1 1 1 1 0 0 1-1-1V1ZM56 1a1 1 0 0 1 1-1 1 1 0 0 1 1 1v13L71 1l1-1a1 1 0 0 1 1 1 1 1 0 0 1 0 1l-8 8 9 11v1a1 1 0 0 1-1 1 1 1 0 0 1-1-1l-9-10-5 5v5a1 1 0 0 1-1 1 1 1 0 0 1-1-1V1Z"/>
      </symbol>

      <symbol viewBox="0 0 145 40" id="logo-pink-tablet">
        <path fill-rule="evenodd" clip-rule="evenodd" d="m53.9 6.59 5.03 21.14a1.42 1.42 0 0 1-.75 1.72c-.2.09-.43.13-.65.11h-4.01a11.63 11.63 0 0 1-11.49 10.32c-5.92 0-10.8-4.5-11.49-10.32h-1.96A11.75 11.75 0 0 1 16.97 40c-6 0-10.94-4.57-11.61-10.47H1.45A1.36 1.36 0 0 1 .3 29a1.42 1.42 0 0 1-.24-1.27L5.1 6.6C5.46 4.26 7.64 0 13.5 0c.38 0 .76.16 1.03.44a1.5 1.5 0 0 1 0 2.1c-.27.27-.65.43-1.03.43-4.71 0-5.44 3.7-5.5 4.1L3.34 26.6h2.03a11.75 11.75 0 0 1 11.6-10.3c5.94 0 10.84 4.48 11.6 10.3h1.99a11.63 11.63 0 0 1 11.47-10.19c5.89 0 10.75 4.46 11.48 10.23v-.06h2.14L51 7.08c-.07-.41-.77-4.1-5.5-4.1-.39 0-.76-.17-1.03-.44a1.5 1.5 0 0 1 0-2.1c.27-.28.64-.44 1.03-.44 5.85 0 8.03 4.26 8.38 6.59ZM25.66 29.56a9.12 9.12 0 0 0-.02-2.97 8.85 8.85 0 0 0-8.68-7.38 8.85 8.85 0 0 0-8.82 8.94 8.85 8.85 0 0 0 8.81 8.94c4.4 0 8.04-3.26 8.71-7.53Zm24.94 0a8.75 8.75 0 0 0-8.58-10.23 8.75 8.75 0 0 0-8.58 10.23 8.73 8.73 0 0 0 8.58 7.4c4.33 0 7.91-3.2 8.58-7.4Z"/>
        <path d="M71 18.55a1.29 1.29 0 0 1 1.26-1.29h7.13c5.06 0 8.39 2.7 8.39 7.13v.06c0 4.85-4.04 7.36-8.8 7.36h-5.44v6.8A1.28 1.28 0 0 1 72.27 40 1.27 1.27 0 0 1 71 38.61V18.55Zm8.07 10.97c3.7 0 6.14-2 6.14-4.99v-.06c0-3.2-2.4-4.87-5.96-4.87H73.6v9.88l5.48.04ZM92.6 18.39A1.28 1.28 0 0 1 93.85 17a1.27 1.27 0 0 1 1.27 1.39V38.6A1.28 1.28 0 0 1 93.86 40a1.27 1.27 0 0 1-1.27-1.39V18.4ZM101.67 18.42a1.28 1.28 0 0 1 1.26-1.25h.34a1.53 1.53 0 0 1 1.29.74l13.6 17.4V18.36a1.24 1.24 0 0 1 1.23-1.24 1.23 1.23 0 0 1 1.23 1.24v20.3a1.16 1.16 0 0 1-.32.83 1.13 1.13 0 0 1-.83.34h-.13a1.69 1.69 0 0 1-1.31-.78l-13.91-17.8v17.4a1.26 1.26 0 0 1-1.2 1.25 1.23 1.23 0 0 1-1.2-1.25V18.42h-.05ZM126.94 18.39A1.28 1.28 0 0 1 128.2 17a1.27 1.27 0 0 1 1.26 1.39v12.3l12.76-13.14c.26-.27.62-.43 1-.45a1.27 1.27 0 0 1 1.21 1.26 1.3 1.3 0 0 1-.41.9l-7.95 7.9 8.57 10.52c.23.26.35.6.35.94a1.33 1.33 0 0 1-.4.92 1.29 1.29 0 0 1-.94.36 1.23 1.23 0 0 1-1-.58l-8.36-10.46-4.83 4.85v4.88a1.28 1.28 0 0 1-.78 1.17 1.26 1.26 0 0 1-1.74-1.17V18.4h-.01Z"/>
      </symbol>

      <symbol viewBox="0 0 147 40" id="logo-pink-desktop">
        <path d="M72.1933 18.4249C72.1932 18.0921 72.3255 17.7726 72.562 17.5345C72.7985 17.2965 73.1204 17.1589 73.4588 17.1511H80.6703C85.7826 17.1511 89.1473 19.827 89.1473 24.211V24.2703C89.1473 29.069 85.0695 31.5573 80.2484 31.5573H74.7544V38.2913C74.7702 38.466 74.7488 38.6421 74.6916 38.8082C74.6344 38.9743 74.5426 39.1269 74.4222 39.2563C74.3017 39.3856 74.1552 39.489 73.992 39.5596C73.8287 39.6303 73.6522 39.6668 73.4738 39.6668C73.2954 39.6668 73.119 39.6303 72.9557 39.5596C72.7925 39.489 72.6459 39.3856 72.5255 39.2563C72.405 39.1269 72.3133 38.9743 72.2561 38.8082C72.1989 38.6421 72.1775 38.466 72.1933 38.2913V18.4249ZM80.3489 29.2863C84.0952 29.2863 86.556 27.3115 86.556 24.3493V24.29C86.556 21.1106 84.1354 19.4616 80.5297 19.4616H74.8047V29.2468L80.3489 29.2863Z"/>
        <path d="M94.0187 18.2669C94.0029 18.0922 94.0243 17.9162 94.0815 17.7501C94.1387 17.5839 94.2305 17.4313 94.3509 17.302C94.4714 17.1726 94.6179 17.0693 94.7812 16.9986C94.9444 16.9279 95.1209 16.8914 95.2993 16.8914C95.4777 16.8914 95.6541 16.9279 95.8174 16.9986C95.9807 17.0693 96.1272 17.1726 96.2476 17.302C96.3681 17.4313 96.4598 17.5839 96.517 17.7501C96.5742 17.9162 96.5956 18.0922 96.5799 18.2669V38.2913C96.5956 38.466 96.5742 38.642 96.517 38.8082C96.4598 38.9743 96.3681 39.1269 96.2476 39.2563C96.1272 39.3856 95.9807 39.489 95.8174 39.5596C95.6541 39.6303 95.4777 39.6668 95.2993 39.6668C95.1209 39.6668 94.9444 39.6303 94.7812 39.5596C94.6179 39.489 94.4714 39.3856 94.3509 39.2563C94.2305 39.1269 94.1387 38.9743 94.0815 38.8082C94.0243 38.642 94.0029 38.466 94.0187 38.2913V18.2669Z"/>
        <path d="M103.199 18.2965C103.206 17.9699 103.343 17.6588 103.579 17.4287C103.815 17.1986 104.132 17.0673 104.464 17.0623H104.816C105.077 17.0675 105.332 17.1372 105.559 17.2649C105.785 17.3925 105.975 17.5741 106.111 17.7929L119.862 35.0231V18.2373C119.862 17.9125 119.993 17.6011 120.226 17.3715C120.46 17.1419 120.777 17.0129 121.107 17.0129C121.437 17.0129 121.754 17.1419 121.988 17.3715C122.221 17.6011 122.352 17.9125 122.352 18.2373V38.3308C122.358 38.4836 122.332 38.6359 122.275 38.7784C122.219 38.9209 122.134 39.0506 122.025 39.1596C121.916 39.2687 121.785 39.3547 121.641 39.4125C121.497 39.4704 121.343 39.4987 121.187 39.496H121.057C120.79 39.4779 120.531 39.3989 120.301 39.2652C120.071 39.1314 119.876 38.9468 119.731 38.7258L105.67 21.0908V38.3308C105.667 38.6491 105.541 38.9544 105.317 39.184C105.093 39.4135 104.788 39.5499 104.464 39.5651C104.136 39.5599 103.823 39.4272 103.593 39.1961C103.363 38.9649 103.236 38.6539 103.239 38.3308V18.2965H103.199Z"/>
        <path d="M128.74 18.2669C128.724 18.0922 128.746 17.9162 128.803 17.7501C128.86 17.5839 128.952 17.4313 129.072 17.302C129.193 17.1726 129.339 17.0693 129.503 16.9986C129.666 16.9279 129.842 16.8914 130.021 16.8914C130.199 16.8914 130.376 16.9279 130.539 16.9986C130.702 17.0693 130.849 17.1726 130.969 17.302C131.09 17.4313 131.181 17.5839 131.238 17.7501C131.296 17.9162 131.317 18.0922 131.301 18.2669V30.4415L144.198 17.4375C144.462 17.1684 144.822 17.0094 145.202 16.9931C145.531 17.0057 145.842 17.1418 146.072 17.3732C146.302 17.6046 146.433 17.9139 146.437 18.2373C146.43 18.4054 146.389 18.5706 146.317 18.7231C146.245 18.8756 146.142 19.0125 146.016 19.1259L137.98 26.9461L146.648 37.3731C146.875 37.631 147 37.9604 147 38.3012C146.996 38.472 146.958 38.6402 146.887 38.7964C146.817 38.9525 146.716 39.0934 146.59 39.2109C146.464 39.3284 146.315 39.4202 146.153 39.481C145.991 39.5418 145.818 39.5703 145.644 39.5651C145.442 39.557 145.245 39.5006 145.07 39.4008C144.895 39.3011 144.747 39.1609 144.64 38.9924L136.183 28.6346L131.301 33.4333V38.2716C131.301 38.4363 131.268 38.5993 131.204 38.7515C131.14 38.9036 131.046 39.0419 130.928 39.1583C130.809 39.2747 130.669 39.3671 130.514 39.4301C130.359 39.4932 130.193 39.5256 130.026 39.5256C129.858 39.5256 129.692 39.4932 129.538 39.4301C129.383 39.3671 129.242 39.2747 129.124 39.1583C129.005 39.0419 128.911 38.9036 128.847 38.7515C128.783 38.5993 128.75 38.4363 128.75 38.2716V18.2669H128.74Z"/>
        <path d="M98.94 9.74563C97.9748 9.74563 97.0489 9.36936 96.3655 8.69932C95.682 8.02927 95.2967 7.12014 95.2941 6.17125C95.2941 7.11923 94.911 8.02839 94.2292 8.69872C93.5473 9.36905 92.6225 9.74563 91.6582 9.74563C92.6234 9.74825 93.5482 10.127 94.2298 10.7989C94.9113 11.4708 95.2941 12.381 95.2941 13.3299C95.2967 12.3801 95.6817 11.4699 96.3649 10.7983C97.048 10.1267 97.9739 9.74824 98.94 9.74563Z" fill="#D22856"/>
        <path d="M43.2871 19.0667C43.5382 19.0667 43.7793 19.0667 44.0203 19.0667C43.802 18.6988 43.4898 18.3933 43.1146 18.1803C42.7394 17.9673 42.3142 17.8542 41.881 17.8522C41.4628 17.8519 41.0552 17.7233 40.7149 17.4843C40.3746 17.2454 40.1186 16.908 39.9827 16.5192C39.259 16.7245 38.5562 16.9955 37.8835 17.3289H38.0744C38.6071 17.3289 39.1181 17.5369 39.4948 17.9073C39.8715 18.2776 40.0832 18.7799 40.0832 19.3037C40.0881 19.399 40.0881 19.4946 40.0832 19.59C41.1091 19.2225 42.1954 19.0451 43.2871 19.0667Z"/>
        <path d="M60.7332 27.6472L55.5406 6.56621C55.179 4.24582 52.9291 0 46.9028 0C46.5033 0 46.1201 0.156044 45.8375 0.433804C45.555 0.711564 45.3962 1.08829 45.3962 1.4811C45.3962 1.87391 45.555 2.25063 45.8375 2.52839C46.1201 2.80615 46.5033 2.9622 46.9028 2.9622C51.7741 2.9622 52.4973 6.6452 52.5676 7.05003L57.3484 26.5018H55.2493C55.0321 24.805 54.4439 23.1744 53.525 21.7222C52.6061 20.2701 51.3783 19.0307 49.926 18.0892C49.4712 18.2774 49.0829 18.5932 48.8096 18.9971C48.5363 19.401 48.3901 19.8751 48.3893 20.3602C48.3948 20.4457 48.3948 20.5314 48.3893 20.6169C49.6107 21.4404 50.6131 22.5401 51.3122 23.8236C52.0113 25.1072 52.3867 26.537 52.4069 27.9928C52.4008 28.4894 52.3538 28.9847 52.2663 29.4739C51.9375 31.5714 50.8559 33.484 49.2173 34.8657C47.5786 36.2474 45.4911 37.007 43.3322 37.007C41.1734 37.007 39.0859 36.2474 37.4472 34.8657C35.8086 33.484 34.727 31.5714 34.3982 29.4739C34.3107 28.9847 34.2636 28.4894 34.2576 27.9928C34.2733 26.6229 34.5993 25.2737 35.2118 24.0432C34.7037 24.0081 34.2282 23.7847 33.8814 23.4181C33.5346 23.0515 33.3424 22.569 33.3436 22.0684C33.3453 21.889 33.277 21.7159 33.1528 21.5846C32.181 23.0752 31.5662 24.7633 31.3549 26.5215H29.4868C29.1663 23.6174 27.7658 20.9319 25.5542 18.9809C23.3427 17.0298 20.4759 15.9507 17.5044 15.9507C14.5329 15.9507 11.6662 17.0298 9.45463 18.9809C7.24307 20.9319 5.84259 23.6174 5.5221 26.5215H3.44302L8.23394 7.05003C8.29421 6.6452 9.0475 2.9622 13.8987 2.9622C14.2983 2.9622 14.6815 2.80615 14.964 2.52839C15.2465 2.25063 15.4053 1.87391 15.4053 1.4811C15.4053 1.08829 15.2465 0.711564 14.964 0.433804C14.6815 0.156044 14.2983 0 13.8987 0C7.87236 0 5.62254 4.24582 5.26096 6.56621L0.0582358 27.6472C-0.00612168 27.8617 -0.0173251 28.0883 0.0255611 28.308C0.0684473 28.5277 0.164178 28.7341 0.304759 28.91C0.44534 29.0859 0.62669 29.2262 0.833664 29.3191C1.04064 29.4121 1.26723 29.455 1.49451 29.4443H5.51206C5.59378 30.055 5.72135 30.659 5.89372 31.2512C5.95717 31.1429 5.99172 31.0206 5.99416 30.8957C5.99416 30.372 6.2058 29.8697 6.58252 29.4993C6.95923 29.129 7.47017 28.9209 8.00293 28.9209C8.16603 28.9231 8.32812 28.9463 8.48504 28.99C8.44128 28.6461 8.41781 28.2999 8.41473 27.9533C8.41742 27.4569 8.46109 26.9616 8.5453 26.4722C8.86708 24.3679 9.94627 22.4469 11.5867 21.0586C13.2271 19.6702 15.3198 18.9066 17.4843 18.9066C19.6489 18.9066 21.7416 19.6702 23.382 21.0586C25.0224 22.4469 26.1016 24.3679 26.4234 26.4722C26.5076 26.9616 26.5513 27.4569 26.554 27.9533C26.5382 30.3054 25.5807 32.5567 23.8889 34.2199C22.1971 35.8831 19.907 36.8243 17.5145 36.8399C15.5563 36.8663 13.6424 36.2668 12.0607 35.1317C11.6982 35.4412 11.235 35.6128 10.755 35.6155C10.5569 35.6181 10.3679 35.6973 10.2288 35.8359C10.0897 35.9745 10.0117 36.1613 10.0117 36.356C10.009 36.6321 9.94739 36.9046 9.83092 37.1558C11.9797 38.9066 14.6835 39.8636 17.4743 39.8613C20.4223 39.8738 23.2728 38.8236 25.4864 36.9095C27.7 34.9953 29.1232 32.35 29.4868 29.4739H31.3147C31.6456 32.3691 33.0499 35.0431 35.2593 36.9848C37.4688 38.9266 40.3285 40 43.2921 40C46.2557 40 49.1154 38.9266 51.3248 36.9848C53.5343 35.0431 54.9385 32.3691 55.2694 29.4739H59.2869C59.5191 29.4904 59.7519 29.4503 59.9647 29.3573C60.1774 29.2642 60.3635 29.121 60.5065 28.9404C60.6495 28.7598 60.7451 28.5473 60.7846 28.3217C60.8241 28.0961 60.8065 27.8645 60.7332 27.6472Z"/>
        <g fill="#D22856">
          <path d="M50.9203 15.9169C50.3273 15.9182 49.7398 15.8045 49.1915 15.5822C48.6432 15.36 48.1448 15.0337 47.725 14.6219C47.3052 14.21 46.9721 13.7209 46.7448 13.1823C46.5176 12.6438 46.4006 12.0665 46.4006 11.4835C46.3979 12.6602 45.9206 13.7878 45.0733 14.619C44.2259 15.4501 43.0778 15.9169 41.8809 15.9169C43.0788 15.9195 44.2268 16.3885 45.0739 17.2212C45.9209 18.0539 46.3979 19.1825 46.4006 20.3602C46.4006 19.1817 46.8768 18.0516 47.7244 17.2183C48.572 16.385 49.7216 15.9169 50.9203 15.9169Z"/>
          <path d="M38.0744 19.3826C37.3418 19.3826 36.6393 19.0966 36.1213 18.5873C35.6033 18.0781 35.3123 17.3875 35.3123 16.6673C35.3123 17.3857 35.0227 18.0749 34.5069 18.5839C33.9911 19.0928 33.2911 19.38 32.5603 19.3826C33.2902 19.3826 33.9902 19.6677 34.5063 20.1751C35.0224 20.6824 35.3123 21.3706 35.3123 22.0881C35.315 21.3697 35.6072 20.6816 36.1249 20.1745C36.6426 19.6674 37.3436 19.3826 38.0744 19.3826Z"/>
          <path d="M10.785 33.6407C10.056 33.6355 9.35856 33.3471 8.84491 32.8384C8.33126 32.3298 8.04302 31.6421 8.04303 30.9253C8.04304 31.6438 7.75342 32.333 7.2376 32.8419C6.72178 33.3508 6.02182 33.6381 5.29102 33.6407C6.02182 33.6433 6.72178 33.9305 7.2376 34.4395C7.75342 34.9484 8.04304 35.6376 8.04303 36.356C8.04302 35.6393 8.33126 34.9516 8.84491 34.4429C9.35856 33.9343 10.056 33.6459 10.785 33.6407Z"/>
        </g>
      </symbol>

      <symbol viewBox="0 0 145 40" id="logo-pink-footer">
        <path d="M71 18.55a1.29 1.29 0 0 1 1.26-1.29h7.13c5.06 0 8.39 2.7 8.39 7.13v.06c0 4.85-4.04 7.36-8.8 7.36h-5.44v6.8A1.28 1.28 0 0 1 72.27 40 1.27 1.27 0 0 1 71 38.61V18.55Zm8.07 10.97c3.7 0 6.14-2 6.14-4.99v-.06c0-3.2-2.4-4.87-5.96-4.87H73.6v9.88l5.48.04ZM92.6 18.39A1.28 1.28 0 0 1 93.85 17a1.27 1.27 0 0 1 1.27 1.39V38.6A1.28 1.28 0 0 1 93.86 40a1.27 1.27 0 0 1-1.27-1.39V18.4ZM101.67 18.42a1.28 1.28 0 0 1 1.26-1.25h.34a1.53 1.53 0 0 1 1.29.74l13.6 17.4V18.36a1.24 1.24 0 0 1 1.23-1.24 1.23 1.23 0 0 1 1.23 1.24v20.3a1.16 1.16 0 0 1-.32.83 1.13 1.13 0 0 1-.83.34h-.13a1.69 1.69 0 0 1-1.31-.78l-13.91-17.8v17.4a1.26 1.26 0 0 1-1.2 1.25 1.23 1.23 0 0 1-1.2-1.25V18.42h-.05ZM126.94 18.39A1.28 1.28 0 0 1 128.2 17a1.27 1.27 0 0 1 1.26 1.39v12.3l12.76-13.14c.26-.27.62-.43 1-.45a1.27 1.27 0 0 1 1.21 1.26 1.3 1.3 0 0 1-.41.9l-7.95 7.9 8.57 10.52c.23.26.35.6.35.94a1.33 1.33 0 0 1-.4.92 1.29 1.29 0 0 1-.94.36 1.23 1.23 0 0 1-1-.58l-8.36-10.46-4.83 4.85v4.88a1.28 1.28 0 0 1-.78 1.17 1.26 1.26 0 0 1-1.74-1.17V18.4h-.01Z"/>
        <path fill-rule="evenodd" clip-rule="evenodd" d="m53.9 6.59 5.03 21.14a1.42 1.42 0 0 1-.75 1.72c-.2.09-.43.13-.65.11h-4.01a11.63 11.63 0 0 1-11.49 10.32c-5.92 0-10.8-4.5-11.49-10.32h-1.96A11.75 11.75 0 0 1 16.97 40c-6 0-10.94-4.57-11.61-10.47H1.45A1.36 1.36 0 0 1 .3 29a1.42 1.42 0 0 1-.24-1.27L5.1 6.6C5.46 4.26 7.64 0 13.5 0c.38 0 .76.16 1.03.44a1.5 1.5 0 0 1 0 2.1c-.27.27-.65.43-1.03.43-4.71 0-5.44 3.7-5.5 4.1L3.34 26.6h2.03a11.75 11.75 0 0 1 11.6-10.3c5.94 0 10.84 4.48 11.6 10.3h1.99a11.63 11.63 0 0 1 11.47-10.19c5.89 0 10.75 4.46 11.48 10.23v-.06h2.14L51 7.08c-.07-.41-.77-4.1-5.5-4.1-.39 0-.76-.17-1.03-.44a1.5 1.5 0 0 1 0-2.1c.27-.28.64-.44 1.03-.44 5.85 0 8.03 4.26 8.38 6.59ZM25.66 29.56a9.12 9.12 0 0 0-.02-2.97 8.85 8.85 0 0 0-8.68-7.38 8.85 8.85 0 0 0-8.82 8.94 8.85 8.85 0 0 0 8.81 8.94c4.4 0 8.04-3.26 8.71-7.53Zm24.94 0a8.75 8.75 0 0 0-8.58-10.23 8.75 8.75 0 0 0-8.58 10.23 8.73 8.73 0 0 0 8.58 7.4c4.33 0 7.91-3.2 8.58-7.4Z" fill="#D22856"/>
      </symbol>

      <symbol viewBox="0 0 147 40" id="logo-pink-footer-desktop">
        <path d="M72.1933 18.4251C72.1932 18.0924 72.3255 17.7728 72.562 17.5348C72.7985 17.2967 73.1204 17.1591 73.4588 17.1514H80.6703C85.7826 17.1514 89.1473 19.8272 89.1473 24.2113V24.2705C89.1473 29.0693 85.0695 31.5575 80.2484 31.5575H74.7544V38.2916C74.7702 38.4663 74.7488 38.6423 74.6916 38.8084C74.6344 38.9745 74.5426 39.1271 74.4222 39.2565C74.3017 39.3859 74.1552 39.4892 73.992 39.5599C73.8287 39.6306 73.6522 39.6671 73.4738 39.6671C73.2954 39.6671 73.119 39.6306 72.9557 39.5599C72.7925 39.4892 72.6459 39.3859 72.5255 39.2565C72.405 39.1271 72.3133 38.9745 72.2561 38.8084C72.1989 38.6423 72.1775 38.4663 72.1933 38.2916V18.4251ZM80.3489 29.2865C84.0952 29.2865 86.556 27.3117 86.556 24.3495V24.2903C86.556 21.1108 84.1354 19.4619 80.5297 19.4619H74.8047V29.247L80.3489 29.2865Z"/>
        <path d="M94.0187 18.2671C94.0029 18.0924 94.0243 17.9164 94.0815 17.7502C94.1387 17.5841 94.2305 17.4315 94.3509 17.3021C94.4714 17.1728 94.6179 17.0695 94.7812 16.9988C94.9444 16.9281 95.1209 16.8916 95.2993 16.8916C95.4777 16.8916 95.6541 16.9281 95.8174 16.9988C95.9807 17.0695 96.1272 17.1728 96.2476 17.3021C96.3681 17.4315 96.4598 17.5841 96.517 17.7502C96.5742 17.9164 96.5956 18.0924 96.5799 18.2671V38.2915C96.5956 38.4662 96.5742 38.6422 96.517 38.8084C96.4598 38.9745 96.3681 39.1271 96.2476 39.2565C96.1272 39.3858 95.9807 39.4891 95.8174 39.5598C95.6541 39.6305 95.4777 39.667 95.2993 39.667C95.1209 39.667 94.9444 39.6305 94.7812 39.5598C94.6179 39.4891 94.4714 39.3858 94.3509 39.2565C94.2305 39.1271 94.1387 38.9745 94.0815 38.8084C94.0243 38.6422 94.0029 38.4662 94.0187 38.2915V18.2671Z"/>
        <path d="M103.199 18.2963C103.206 17.9697 103.343 17.6587 103.579 17.4285C103.815 17.1984 104.132 17.0671 104.464 17.0621H104.816C105.077 17.0673 105.332 17.137 105.559 17.2647C105.785 17.3923 105.975 17.5739 106.111 17.7927L119.862 35.0229V18.2371C119.862 17.9123 119.993 17.6009 120.226 17.3713C120.46 17.1417 120.777 17.0127 121.107 17.0127C121.437 17.0127 121.754 17.1417 121.988 17.3713C122.221 17.6009 122.352 17.9123 122.352 18.2371V38.3306C122.358 38.4834 122.332 38.6357 122.275 38.7782C122.219 38.9207 122.134 39.0504 122.025 39.1594C121.916 39.2685 121.785 39.3545 121.641 39.4123C121.497 39.4702 121.343 39.4986 121.187 39.4958H121.057C120.79 39.4777 120.531 39.3987 120.301 39.265C120.071 39.1313 119.876 38.9466 119.731 38.7256L105.67 21.0907V38.3306C105.667 38.6489 105.541 38.9542 105.317 39.1838C105.093 39.4134 104.788 39.5498 104.464 39.5649C104.136 39.5597 103.823 39.4271 103.593 39.1959C103.363 38.9647 103.236 38.6537 103.239 38.3306V18.2963H103.199Z"/>
        <path d="M128.74 18.2671C128.725 18.0924 128.746 17.9164 128.803 17.7502C128.86 17.5841 128.952 17.4315 129.073 17.3021C129.193 17.1728 129.34 17.0695 129.503 16.9988C129.666 16.9281 129.843 16.8916 130.021 16.8916C130.199 16.8916 130.376 16.9281 130.539 16.9988C130.702 17.0695 130.849 17.1728 130.969 17.3021C131.09 17.4315 131.182 17.5841 131.239 17.7502C131.296 17.9164 131.317 18.0924 131.302 18.2671V30.4417L144.198 17.4377C144.462 17.1686 144.822 17.0095 145.202 16.9933C145.531 17.0059 145.842 17.1419 146.072 17.3734C146.302 17.6048 146.433 17.9141 146.438 18.2375C146.431 18.4056 146.39 18.5708 146.317 18.7233C146.245 18.8758 146.142 19.0127 146.016 19.1261L137.981 26.9463L146.649 37.3733C146.875 37.6312 147 37.9606 147 38.3014C146.996 38.4721 146.958 38.6404 146.888 38.7965C146.817 38.9527 146.716 39.0936 146.59 39.2111C146.464 39.3286 146.315 39.4203 146.153 39.4811C145.991 39.5419 145.818 39.5705 145.644 39.5653C145.441 39.5598 145.243 39.5045 145.068 39.4045C144.893 39.3044 144.745 39.1629 144.64 38.9926L136.193 28.6348L131.302 33.4335V38.2718C131.302 38.4365 131.269 38.5995 131.204 38.7517C131.14 38.9038 131.046 39.0421 130.928 39.1585C130.81 39.2749 130.669 39.3673 130.514 39.4303C130.359 39.4933 130.193 39.5258 130.026 39.5258C129.858 39.5258 129.693 39.4933 129.538 39.4303C129.383 39.3673 129.242 39.2749 129.124 39.1585C129.006 39.0421 128.912 38.9038 128.848 38.7517C128.783 38.5995 128.75 38.4365 128.75 38.2718V18.2671H128.74Z"/>
        <path d="M98.94 9.74577C97.9748 9.74578 97.0489 9.36951 96.3655 8.69946C95.682 8.02942 95.2967 7.12028 95.2941 6.17139C95.2941 7.11937 94.911 8.02853 94.2292 8.69886C93.5473 9.36919 92.6225 9.74577 91.6582 9.74577C92.6234 9.74839 93.5482 10.1272 94.2298 10.7991C94.9113 11.471 95.2941 12.3811 95.2941 13.33C95.2967 12.3802 95.6817 11.4701 96.3649 10.7985C97.048 10.1268 97.9739 9.74838 98.94 9.74577Z" fill="#D22856"/>
        <path d="M43.2871 19.0665C43.5382 19.0665 43.7793 19.0665 44.0203 19.0665C43.802 18.6987 43.4898 18.3932 43.1146 18.1802C42.7394 17.9672 42.3142 17.8541 41.881 17.852C41.4628 17.8517 41.0552 17.7231 40.7149 17.4842C40.3746 17.2452 40.1186 16.9078 39.9827 16.519C39.259 16.7243 38.5562 16.9954 37.8835 17.3287H38.0744C38.6071 17.3287 39.1181 17.5368 39.4948 17.9071C39.8715 18.2775 40.0832 18.7798 40.0832 19.3035C40.0881 19.3989 40.0881 19.4945 40.0832 19.5899C41.1091 19.2223 42.1954 19.0449 43.2871 19.0665Z" fill="#D22856"/>
        <path d="M60.7332 27.6472L55.5406 6.56621C55.179 4.24582 52.9291 0 46.9028 0C46.5033 0 46.1201 0.156044 45.8375 0.433804C45.555 0.711564 45.3962 1.08829 45.3962 1.4811C45.3962 1.87391 45.555 2.25063 45.8375 2.52839C46.1201 2.80615 46.5033 2.9622 46.9028 2.9622C51.7741 2.9622 52.4973 6.6452 52.5676 7.05003L57.3484 26.5018H55.2493C55.0321 24.805 54.4439 23.1744 53.525 21.7222C52.6061 20.2701 51.3783 19.0307 49.926 18.0892C49.4712 18.2774 49.0829 18.5932 48.8096 18.9971C48.5363 19.401 48.3901 19.8751 48.3893 20.3602C48.3948 20.4457 48.3948 20.5314 48.3893 20.6169C49.6107 21.4404 50.6131 22.5401 51.3122 23.8236C52.0113 25.1072 52.3867 26.537 52.4069 27.9928C52.4008 28.4894 52.3538 28.9847 52.2663 29.4739C51.9375 31.5714 50.8559 33.484 49.2173 34.8657C47.5786 36.2474 45.4911 37.007 43.3322 37.007C41.1734 37.007 39.0859 36.2474 37.4472 34.8657C35.8086 33.484 34.727 31.5714 34.3982 29.4739C34.3107 28.9847 34.2636 28.4894 34.2576 27.9928C34.2733 26.6229 34.5993 25.2737 35.2118 24.0432C34.7037 24.0081 34.2282 23.7847 33.8814 23.4181C33.5346 23.0515 33.3424 22.569 33.3436 22.0684C33.3453 21.889 33.277 21.7159 33.1528 21.5846C32.181 23.0752 31.5662 24.7633 31.3549 26.5215H29.4868C29.1663 23.6174 27.7658 20.9319 25.5542 18.9809C23.3427 17.0298 20.4759 15.9507 17.5044 15.9507C14.5329 15.9507 11.6662 17.0298 9.45463 18.9809C7.24307 20.9319 5.84259 23.6174 5.5221 26.5215H3.44302L8.23394 7.05003C8.29421 6.6452 9.0475 2.9622 13.8987 2.9622C14.2983 2.9622 14.6815 2.80615 14.964 2.52839C15.2465 2.25063 15.4053 1.87391 15.4053 1.4811C15.4053 1.08829 15.2465 0.711564 14.964 0.433804C14.6815 0.156044 14.2983 0 13.8987 0C7.87236 0 5.62254 4.24582 5.26096 6.56621L0.0582358 27.6472C-0.00612168 27.8617 -0.0173251 28.0883 0.0255611 28.308C0.0684473 28.5277 0.164178 28.7341 0.304759 28.91C0.44534 29.0859 0.62669 29.2262 0.833664 29.3191C1.04064 29.4121 1.26723 29.455 1.49451 29.4443H5.51206C5.59378 30.055 5.72135 30.659 5.89372 31.2512C5.95717 31.1429 5.99172 31.0206 5.99416 30.8957C5.99416 30.372 6.2058 29.8697 6.58252 29.4993C6.95923 29.129 7.47017 28.9209 8.00293 28.9209C8.16525 28.9248 8.32675 28.9446 8.48504 28.9802C8.44252 28.6526 8.41904 28.323 8.41473 27.9928C8.41742 27.4964 8.46109 27.0011 8.5453 26.5117C8.86708 24.4074 9.94627 22.4864 11.5867 21.0981C13.2271 19.7097 15.3198 18.9461 17.4843 18.9461C19.6489 18.9461 21.7416 19.7097 23.382 21.0981C25.0224 22.4864 26.1016 24.4074 26.4234 26.5117C26.5076 27.0011 26.5513 27.4964 26.554 27.9928C26.5638 29.6507 26.1017 31.2782 25.2199 32.6915C24.3381 34.1047 23.0717 35.2472 21.5639 35.9899C20.0561 36.7326 18.3671 37.0458 16.6877 36.8942C15.0083 36.7425 13.4056 36.132 12.0607 35.1317C11.6982 35.4412 11.235 35.6128 10.755 35.6155C10.5569 35.6181 10.3679 35.6973 10.2288 35.8359C10.0897 35.9745 10.0117 36.1613 10.0117 36.356C10.009 36.6321 9.94739 36.9046 9.83092 37.1558C11.9797 38.9066 14.6835 39.8636 17.4743 39.8613C20.4223 39.8738 23.2728 38.8236 25.4864 36.9095C27.7 34.9953 29.1232 32.35 29.4868 29.4739H31.3147C31.6456 32.3691 33.0499 35.0431 35.2593 36.9848C37.4688 38.9266 40.3285 40 43.2921 40C46.2557 40 49.1154 38.9266 51.3248 36.9848C53.5343 35.0431 54.9385 32.3691 55.2694 29.4739H59.2869C59.5191 29.4904 59.7519 29.4503 59.9647 29.3573C60.1774 29.2642 60.3635 29.121 60.5065 28.9404C60.6495 28.7598 60.7451 28.5473 60.7846 28.3217C60.8241 28.0961 60.8065 27.8645 60.7332 27.6472Z" fill="#D22856"/>
        <path d="M50.9203 15.9168C50.3273 15.9181 49.7398 15.8044 49.1915 15.5822C48.6432 15.36 48.1448 15.0336 47.725 14.6218C47.3052 14.21 46.9721 13.7208 46.7448 13.1823C46.5176 12.6437 46.4006 12.0664 46.4006 11.4834C46.3979 12.6601 45.9206 13.7878 45.0733 14.6189C44.2259 15.45 43.0778 15.9168 41.8809 15.9168C43.0788 15.9194 44.2268 16.3884 45.0739 17.2211C45.9209 18.0538 46.3979 19.1825 46.4006 20.3601C46.4006 19.1817 46.8768 18.0515 47.7244 17.2182C48.572 16.385 49.7216 15.9168 50.9203 15.9168Z" fill="#283645"/>
        <path d="M38.0741 19.3828C37.3416 19.3828 36.6391 19.0967 36.1211 18.5875C35.6031 18.0783 35.3121 17.3876 35.3121 16.6675C35.3121 17.3859 35.0225 18.0751 34.5066 18.584C33.9908 19.093 33.2909 19.3802 32.5601 19.3828C33.2899 19.3828 33.9899 19.6679 34.506 20.1752C35.0221 20.6826 35.3121 21.3708 35.3121 22.0883C35.3147 21.3699 35.6069 20.6817 36.1246 20.1746C36.6423 19.6675 37.3433 19.3828 38.0741 19.3828Z" fill="#283645"/>
        <path d="M10.785 33.6406C10.056 33.6354 9.35856 33.347 8.84491 32.8384C8.33126 32.3297 8.04302 31.642 8.04303 30.9253C8.04304 31.6437 7.75342 32.3329 7.2376 32.8419C6.72178 33.3508 6.02182 33.638 5.29102 33.6406C6.02182 33.6433 6.72178 33.9305 7.2376 34.4394C7.75342 34.9484 8.04304 35.6375 8.04303 36.356C8.04302 35.6392 8.33126 34.9516 8.84491 34.4429C9.35856 33.9342 10.056 33.6459 10.785 33.6406Z" fill="#283645"/>
      </symbol>
</svg>
